<svg width="66" height="60" viewBox="0 0 66 60" fill="none" xmlns="http://www.w3.org/2000/svg">
<path fill-rule="evenodd" clip-rule="evenodd" d="M63.6942 15.7639L58.0124 23.7083L52.3306 15.7639H55.4285C55.1923 9.86111 50.3163 5.13889 44.3567 5.13889C39.3278 5.13889 35.063 8.51389 33.7155 13.1111C32.0762 12.5833 30.3814 12.25 28.6588 12.0972C28.8533 11.3611 29.1034 10.625 29.409 9.91667C30.2286 7.98611 31.3955 6.25 32.8819 4.76389C34.3684 3.27778 36.1049 2.09722 38.0358 1.29167C40.0363 0.430556 42.1617 0 44.3567 0C46.5516 0 48.677 0.430556 50.6775 1.27778C52.6084 2.09722 54.3449 3.26389 55.8314 4.75C57.3178 6.23611 58.4847 7.97222 59.3043 9.90278C60.0962 11.7639 60.5268 13.7361 60.5685 15.7639H63.6942Z" fill="white"/>
<path fill-rule="evenodd" clip-rule="evenodd" d="M55.748 59.9999V56.5832H36.1604C36.2993 56.5138 36.4382 56.4582 36.5772 56.3888C38.7026 55.3749 40.6614 54.0554 42.4118 52.4443C42.6479 52.2221 42.8702 52.0138 43.0786 51.8054C43.3147 51.5693 43.5648 51.3193 43.8009 51.0554C44.0788 50.7499 44.3566 50.4304 44.6067 50.111H55.748V46.6943L65.0555 53.3471L55.748 59.9999Z" fill="white"/>
<path fill-rule="evenodd" clip-rule="evenodd" d="M48.5242 35.3194C48.5242 38.2778 47.9408 41.1528 46.8016 43.8611C45.8292 46.1667 44.4678 48.2778 42.773 50.125C42.5507 50.3611 42.3284 50.5972 42.1062 50.8333C41.8978 51.0417 41.6894 51.2361 41.481 51.4444C39.8418 52.9583 38.008 54.1944 36.0076 55.1528C35.7298 55.2917 35.438 55.4167 35.1463 55.5417C35.1324 55.5417 35.1324 55.5556 35.1185 55.5556C33.4515 56.2639 31.6594 56.6111 29.8396 56.6111H0.944458V50.1528H27.7697C35.8826 50.1528 42.5368 43.6667 42.6479 35.5556C42.6479 35.4861 42.6479 35.4167 42.6479 35.3472C42.6479 26.4861 35.4519 19.2917 26.5889 19.2917C17.7259 19.2639 10.5299 26.4444 10.5299 35.3194H14.2529L7.59868 44.625L0.944458 35.3194H4.66749C4.66749 32.3611 5.25095 29.4861 6.39008 26.7778C7.50143 24.1667 9.07122 21.8194 11.0855 19.8056C13.0999 17.7917 15.4476 16.2083 18.0593 15.1111C20.7682 13.9722 23.6438 13.3889 26.6028 13.3889C27.2001 13.3889 27.7836 13.4167 28.3671 13.4583C30.0897 13.5972 31.7706 13.9306 33.4098 14.4722C33.9933 14.6667 34.5629 14.875 35.1324 15.125C37.7441 16.2361 40.0918 17.8056 42.1062 19.8194C44.1205 21.8333 45.7042 24.1806 46.8016 26.7917C47.9408 29.4861 48.5242 32.3611 48.5242 35.3194Z" fill="white"/>
</svg>
